# xmcd
#
# Track frame offsets:
# 150
# 10650
# 24895
# 55565
# 68435
# 96665
# 110492
# 124285
# 135315
# 146695
# 157342
# 176802
# 190697
# 219665
#
# Disc length: 3086 seconds
#
#
# Revision: 0
# Processed by: cddbd v1.5.2PL0 Copyright (c) Steve Scherf et al.
# Submitted via: FreeRIP 2.90 
#
DISCID=c20c0c0e
DTITLE=Ray Charles - The Best Of Ray Charles
DYEAR=2004
DGENRE=Blues
TTITLE0=Ain't That Fine
TTITLE1=Blues is My Middle Name
TTITLE2=Georgia On My Mind
TTITLE3=Heart Breaker
TTITLE4=I Got a Woman
TTITLE5=I'm Going Down The River
TTITLE6=Late In The Evening Blues
TTITLE7=Sentimental Blues
TTITLE8=She's On The Ball
TTITLE9=Sitting On the Top Of World
TTITLE10=Talking about you
TTITLE11=This Love Of Mine
TTITLE12=What'd I Say
TTITLE13=You Be My Baby
EXTD=Do Caralho!\n\nBy Gominha
EXTT0=
EXTT1=
EXTT2=
EXTT3=
EXTT4=
EXTT5=
EXTT6=
EXTT7=
EXTT8=
EXTT9=
EXTT10=
EXTT11=
EXTT12=
EXTT13=
PLAYORDER=
